Coordinates
version=1
nRows=54
nColumns=12
inDegrees=yes

Units are S.I. units (second, meters, Newtons, ...)
Angles are in degrees

endheader
time	SC_y	SC_z	SC_x	AC_y	AC_z	AC_x	GH_y	GH_z	GH_yy	EL_x	PS_y
       0.0              -56.37           37.5          47.23          49.59         -8.581         -16.87         -3.721          23.35         -128.2          61.81          120.9
   0.03733              -56.36           37.5          47.22          49.59         -8.582         -16.86         -3.726          23.35         -128.1          61.81          120.9
   0.07466              -56.35           37.5          47.21          49.59         -8.583         -16.85         -3.731          23.35         -128.1           61.8          120.9
     0.112              -56.35          37.49          47.21          49.59         -8.585         -16.85         -3.737          23.35         -128.1           61.8          120.9
    0.1493              -56.34          37.49           47.2          49.58         -8.586         -16.84         -3.743          23.35         -128.0           61.8          120.9
    0.1867              -56.33          37.49          47.19          49.58         -8.587         -16.84          -3.75          23.35         -128.0          61.79          120.8
     0.224              -56.32          37.48          47.18          49.58         -8.589         -16.83         -3.757          23.35         -128.0          61.79          120.8
    0.2613              -56.31          37.48          47.17          49.58          -8.59         -16.82         -3.764          23.34         -127.9          61.79          120.8
    0.2987               -56.3          37.48          47.16          49.57         -8.592         -16.81         -3.772          23.34         -127.9          61.79          120.8
     0.336              -56.29          37.47          47.15          49.57         -8.594          -16.8         -3.781          23.34         -127.8          61.78          120.8
    0.3733              -56.28          37.47          47.14          49.57         -8.596          -16.8          -3.79          23.34         -127.8          61.78          120.8
    0.4107              -56.27          37.46          47.13          49.56         -8.598         -16.79           -3.8          23.34         -127.7          61.77          120.7
     0.448              -56.25          37.46          47.11          49.56           -8.6         -16.78         -3.811          23.34         -127.7          61.77          120.7
    0.4853              -56.24          37.45           47.1          49.55         -8.603         -16.76         -3.822          23.34         -127.6          61.76          120.7
    0.5227              -56.22          37.45          47.08          49.55         -8.605         -16.75         -3.835          23.34         -127.5          61.76          120.7
      0.56              -56.21          37.44          47.07          49.55         -8.608         -16.74         -3.848          23.34         -127.5          61.75          120.7
    0.5973              -56.19          37.43          47.05          49.54         -8.611         -16.72         -3.863          23.33         -127.4          61.75          120.6
    0.6347              -56.17          37.42          47.03          49.53         -8.615         -16.71         -3.879          23.33         -127.3          61.74          120.6
     0.672              -56.14          37.42           47.0          49.53         -8.618         -16.69         -3.897          23.33         -127.2          61.73          120.6
    0.7093              -56.12          37.41          46.98          49.52         -8.622         -16.67         -3.916          23.33         -127.1          61.72          120.5
    0.7466              -56.09           37.4          46.95          49.51         -8.627         -16.65         -3.937          23.33         -127.0          61.71          120.5
     0.784              -56.06          37.38          46.93           49.5         -8.632         -16.63          -3.96          23.33         -126.9           61.7          120.5
    0.8213              -56.03          37.37          46.89           49.5         -8.637          -16.6         -3.986          23.32         -126.7          61.69          120.4
    0.8586              -55.99          37.36          46.86          49.48         -8.643         -16.57         -4.014          23.32         -126.6          61.68          120.4
     0.896              -55.95          37.34          46.82          49.47          -8.65         -16.54         -4.045          23.32         -126.4          61.67          120.3
    0.9333              -55.91          37.33          46.77          49.46         -8.658          -16.5         -4.081          23.31         -126.2          61.65          120.2
    0.9706              -55.86          37.31          46.72          49.45         -8.666         -16.46          -4.12          23.31         -126.0          61.64          120.2
     1.008               -55.8          37.28          46.67          49.43         -8.675         -16.42         -4.164           23.3         -125.8          61.62          120.1
     1.045              -55.74          37.26          46.61          49.41         -8.686         -16.37         -4.214           23.3         -125.5           61.6          120.0
     1.083              -55.66          37.23          46.53          49.39         -8.698         -16.31         -4.271          23.29         -125.2          61.57          119.9
      1.12              -55.58           37.2          46.45          49.37         -8.712         -16.25         -4.336          23.29         -124.8          61.54          119.8
     1.157              -55.49          37.16          46.36          49.34         -8.728         -16.17         -4.411          23.28         -124.4          61.51          119.6
     1.195              -55.37          37.12          46.25          49.31         -8.746         -16.09         -4.497          23.27         -123.9          61.48          119.5
     1.232              -55.25          37.07          46.13          49.27         -8.767         -15.99         -4.597          23.26         -123.4          61.43          119.3
     1.269               -55.1          37.01          45.98          49.23         -8.792         -15.87         -4.714          23.25         -122.8          61.38          119.1
     1.307              -54.92          36.95          45.81          49.18         -8.821         -15.73         -4.851          23.24         -122.0          61.32          118.8
     1.344              -54.71          36.87           45.6          49.12         -8.856         -15.57         -5.015          23.22         -121.1          61.25          118.5
     1.381              -54.46          36.77          45.35          49.05         -8.898         -15.37         -5.212           23.2         -120.0          61.17          118.2
     1.419              -54.16          36.65          45.05          48.96         -8.948         -15.13         -5.449          23.18         -118.7          61.07          117.7
     1.456              -53.78          36.51          44.69          48.86          -9.01         -14.84         -5.739          23.15         -117.2          60.94          117.2
     1.493              -53.33          36.33          44.24          48.72         -9.086         -14.48         -6.097          23.11         -115.2          60.79          116.5
     1.531              -52.75          36.11          43.68          48.56         -9.181         -14.03         -6.544          23.07         -112.8           60.6          115.7
     1.568              -52.03          35.84          42.97          48.36         -9.301         -13.47         -7.107          23.01         -109.7          60.36          114.7
     1.605              -51.12          35.48          42.07           48.1         -9.453         -12.75         -7.822          22.94         -105.8          60.05          113.4
     1.643              -49.95          35.03          40.92          47.76         -9.648         -11.83         -8.737          22.85         -100.8          59.66          111.7
      1.68              -48.44          34.46          39.45          47.33         -9.897         -10.65         -9.912          22.73          -94.4          59.16          109.6
     1.717              -46.52          33.72          37.56          46.78         -10.22         -9.149         -11.41          22.59         -86.22          58.52          106.8
     1.755              -44.11          32.79          35.19           46.1         -10.62         -7.256          -13.3           22.4         -75.93          57.71          103.3
     1.792              -41.16          31.66           32.3          45.26         -11.11          -4.95          -15.6          22.17         -63.38          56.72          99.13
     1.829              -37.75          30.35          28.95          44.28         -11.67         -2.276         -18.26          21.91         -48.85          55.58          94.25
     1.867              -34.05          28.93          25.33          43.23         -12.29         0.6189         -21.15          21.62         -33.11          54.35          88.96
     1.904              -30.36          27.51           21.7          42.18          -12.9          3.514         -24.04          21.33         -17.37          53.11          83.68
     1.941              -26.95           26.2          18.35          41.21         -13.47          6.188          -26.7          21.07         -2.831          51.97          78.79
     1.979               -24.0          25.07          15.46          40.37         -13.96          8.494          -29.0          20.84          9.709          50.99          74.58
